<?xml version="1.0" standalone="no"?>
<!DOCTYPE svg PUBLIC "-//W3C//DTD SVG 20010904//EN"
 "http://www.w3.org/TR/2001/REC-SVG-20010904/DTD/svg10.dtd">
<svg version="1.0" xmlns="http://www.w3.org/2000/svg"
 width="127.000000pt" height="127.000000pt" viewBox="0 0 127.000000 127.000000"
 preserveAspectRatio="xMidYMid meet">
<metadata>
Created by potrace 1.14, written by Peter Selinger 2001-2017
</metadata>
<g transform="translate(0.000000,127.000000) scale(0.100000,-0.100000)"
fill="#000000" stroke="none">
<path d="M60 1261 c0 -13 23 -20 52 -14 37 7 42 -10 23 -72 -19 -60 -58 -106
-76 -88 -8 8 -4 23 15 55 31 53 32 58 7 58 -12 0 -21 -9 -25 -25 -4 -14 -17
-32 -31 -41 l-25 -16 0 -458 c0 -454 0 -459 21 -465 24 -8 21 -41 -4 -37 -25
4 -21 -23 8 -52 14 -14 25 -32 25 -41 0 -8 9 -15 20 -15 17 0 18 3 10 26 -14
36 -12 64 3 64 22 0 65 -109 52 -130 -4 -7 154 -10 486 -10 442 0 490 2 479
15 -10 12 -10 19 -2 27 7 7 12 22 12 34 0 31 35 72 50 58 8 -8 8 -19 0 -38
-14 -38 -13 -46 8 -46 9 0 25 14 35 31 9 17 26 33 37 36 13 3 20 14 20 28 0
21 -3 23 -29 15 -16 -4 -32 -6 -35 -2 -14 14 -4 32 22 38 54 13 52 -4 52 444
l0 418 -30 6 c-17 3 -43 15 -59 27 -37 27 -75 112 -67 150 l5 28 -529 0 c-292
0 -530 -4 -530 -8z m676 -57 c108 -51 68 -224 -51 -224 -34 0 -80 24 -99 52
-21 30 -20 102 1 135 18 26 64 52 96 53 11 0 34 -7 53 -16z m150 -228 c16 -12
20 -29 23 -107 4 -115 -9 -163 -52 -189 -35 -22 -97 -26 -130 -9 -12 6 -52 41
-88 76 -62 61 -89 72 -89 39 0 -8 7 -19 15 -26 11 -9 15 -33 15 -91 l0 -79
128 0 c175 0 168 5 277 -211 74 -146 86 -177 79 -198 -5 -14 -22 -30 -36 -35
-50 -18 -69 4 -149 169 l-74 153 -153 4 -154 3 -29 33 -29 32 0 163 c0 183 6
202 62 230 62 31 95 17 190 -79 46 -46 86 -84 91 -84 4 0 7 42 7 94 0 87 2 96
22 110 28 20 49 20 74 2z m-525 -406 c10 -6 19 -21 19 -33 0 -27 35 -86 56
-94 13 -5 11 -9 -8 -30 -18 -20 -23 -36 -23 -80 0 -49 3 -58 33 -84 62 -55
158 -32 188 46 11 31 13 47 5 69 -6 15 -11 29 -11 32 0 2 34 4 75 4 l75 0 24
-49 c14 -27 22 -51 19 -55 -4 -3 -21 -6 -38 -6 -27 0 -35 -5 -45 -30 -11 -27
-10 -33 13 -64 l26 -33 -34 -33 -34 -33 -33 25 c-32 24 -34 24 -65 10 -29 -14
-33 -21 -33 -54 l0 -38 -50 0 -50 0 -6 41 c-9 56 -43 70 -96 40 l-37 -21 -30
31 c-37 37 -38 39 -7 68 22 21 23 25 11 54 -11 26 -20 33 -52 37 -37 5 -38 6
-41 51 -3 41 0 47 20 53 13 3 32 6 43 6 28 0 49 54 28 71 -34 29 -36 50 -7 80
31 32 36 34 65 19z"/>
<path d="M1160 1227 c0 -51 22 -89 41 -70 10 10 10 18 1 38 -7 15 -9 37 -6 51
5 20 2 24 -15 24 -18 0 -21 -6 -21 -43z"/>
<path d="M1250 1256 c-14 -18 -10 -58 8 -64 8 -2 12 9 12 37 0 45 -2 48 -20
27z"/>
<path d="M1 1223 c0 -29 2 -33 8 -18 7 18 4 55 -5 55 -2 0 -4 -17 -3 -37z"/>
<path d="M1241 1126 c-9 -11 -8 -15 5 -20 23 -9 24 -8 24 14 0 23 -13 26 -29
6z"/>
<path d="M1246 61 c-20 -22 -14 -61 10 -61 10 0 14 12 14 40 0 22 -2 40 -3 40
-2 0 -12 -9 -21 -19z"/>
<path d="M2 30 c0 -14 2 -19 5 -12 2 6 2 18 0 25 -3 6 -5 1 -5 -13z"/>
<path d="M58 3 c6 -2 18 -2 25 0 6 3 1 5 -13 5 -14 0 -19 -2 -12 -5z"/>
<path d="M1158 3 c6 -2 18 -2 25 0 6 3 1 5 -13 5 -14 0 -19 -2 -12 -5z"/>
</g>
</svg>
